# xmcd
#
# Track frame offsets: 
#        150
#        17837
#        34995
#        48278
#        63849
#        77716
#        95606
#        111938
#        131926
#        149200
#        162364
#        178717
#        195458
#        212845
#        229088
#        246405
#        263748
#        281316
#        297372
#        310687
#        340981
#
# Disc length: 4781 seconds
#
# Revision: 0
# Processed by: cddbd v1.5.2PL0 Copyright (c) Steve Scherf et al.
# Submitted via: ExactAudioCopy v1.1
#
DISCID=4112ab15
DTITLE=Various Artist - MNM Party 2018 Volume 1 - CD 2 - Party Flash Backs
DYEAR=2018
DGENRE=Pop
TTITLE0=David Guetta Feat. Sia - Titanium
TTITLE1=Robert Miles - Children
TTITLE2=DJ Fresh Feat. Rita Ora - Hot Right Now
TTITLE3=Avicii Vs Nicky Romero - I Could Be The One (Nicktim)
TTITLE4=Bingo Players - Cry (Just A Little)
TTITLE5=Jennifer Lopez - Let's Get Loud
TTITLE6=Martin Solveig - Rocking Music
TTITLE7=Haddaway - What Is Love
TTITLE8=Paul and Fritz Kalkbrenner - Sky And Sand
TTITLE9=Bob Sinclar - The Beat Goes On
TTITLE10=Eiffel 65 - Blue (Da Ba Dee)
TTITLE11=Rune - Calabria
TTITLE12=Kane - Rain Down On Me (Tiësto Remix)
TTITLE13=Edward Maya and Vika Jigulina - Stereo Love
TTITLE14=MGMT - Kids
TTITLE15=Flo Rida Feat. David Guetta - Club Can't Handle Me
TTITLE16=Buraka Som Sistema Feat. Pongolove - Kalemba (Wegue Wegue)
TTITLE17=Confetti's - The Sound Of C
TTITLE18=Daniel Bovie and Roy Rox - Stop Playing With My Mind
TTITLE19=The Temper Trap - Sweet Disposition (Axwell and Dirty South Rem
TTITLE19=ix)
TTITLE20=Coldplay - A Sky Full Of Stars
EXTD=
EXTT0=
EXTT1=
EXTT2=
EXTT3=
EXTT4=
EXTT5=
EXTT6=
EXTT7=
EXTT8=
EXTT9=
EXTT10=
EXTT11=
EXTT12=
EXTT13=
EXTT14=
EXTT15=
EXTT16=
EXTT17=
EXTT18=
EXTT19=
EXTT20=
PLAYORDER=
